<svg width="1098" height="443" xmlns="http://www.w3.org/2000/svg" xmlnsXlink="http://www.w3.org/1999/xlink" xmlSpace="preserve" overflow="hidden"><defs><clipPath id="clip0"><rect x="1408" y="386" width="1098" height="443"/></clipPath></defs><g clip-path="url(#clip0)" transform="translate(-1408 -386)"><path d="" transform="translate(1496.48 573)"/><path d="M100.919 15.4321C93.7891 15.4321 87.1018 14.0803 80.8572 11.3767 74.6125 8.67309 69.1455 4.98852 64.456 0.322998 59.7666-4.34253 56.0701-9.79761 53.3665-16.0422 50.6628-22.2869 49.311-28.9741 49.311-36.104 49.311-44.1431 50.4834-51.883 52.8281-59.324 55.1728-66.7649 58.666-73.7871 63.3076-80.3906 61.4414-79.7207 59.7666-78.979 58.2832-78.1655 56.7998-77.352 55.4121-76.4429 54.1201-75.438 52.8281-74.4331 51.584-73.3445 50.3877-72.1721 49.1914-70.9997 47.9473-69.7676 46.6553-68.4756 45.5547-67.3271 44.5139-66.3462 43.533-65.5327 42.552-64.7192 41.571-64.0373 40.5901-63.4871 39.6091-62.9368 38.5803-62.542 37.5037-62.3027 36.427-62.0635 35.2187-61.9438 33.8789-61.9438 31.7256-61.9438 29.7158-62.3506 27.8496-63.1641 25.9834-63.9775 24.3445-65.0781 22.9329-66.4658 21.5212-67.8535 20.4087-69.4805 19.5952-71.3467 18.7817-73.2129 18.375-75.2226 18.375-77.376 18.375-79.4336 18.686-81.1921 19.3081-82.6516 19.9302-84.1111 20.8154-85.6543 21.9639-87.2812 24.7871-91.2529 28.2444-94.8538 32.3357-98.0837 36.427-101.314 40.8413-104.065 45.5786-106.338 50.3159-108.611 55.2207-110.37 60.293-111.614 65.3652-112.858 70.3179-113.48 75.1509-113.48 79.5532-113.48 83.9077-113.121 88.2143-112.403 92.521-111.686 96.7559-110.585 100.919-109.102 105.082-110.585 109.317-111.686 113.624-112.403 117.93-113.121 122.285-113.48 126.687-113.48 131.472-113.48 136.413-112.858 141.509-111.614 146.605-110.37 151.522-108.611 156.259-106.338 160.997-104.065 165.411-101.314 169.502-98.0837 173.593-94.8538 177.051-91.2529 179.874-87.2812 181.022-85.6543 181.908-84.1111 182.53-82.6516 183.152-81.1921 183.463-79.4336 183.463-77.376 183.463-75.2226 183.056-73.2129 182.243-71.3467 181.429-69.4805 180.317-67.8535 178.905-66.4658 177.493-65.0781 175.854-63.9775 173.988-63.1641 172.122-62.3506 170.112-61.9438 167.959-61.9438 166.619-61.9438 165.411-62.0635 164.334-62.3027 163.258-62.542 162.253-62.9009 161.32-63.3794 160.386-63.8579 159.501-64.4441 158.664-65.1379 157.826-65.8318 156.953-66.6333 156.044-67.5425 154.656-68.978 153.316-70.3059 152.024-71.5261 150.732-72.7463 149.405-73.8948 148.041-74.9714 146.677-76.0481 145.229-77.041 143.698-77.9502 142.167-78.8594 140.444-79.6728 138.53-80.3906 143.172-73.7871 146.665-66.7649 149.01-59.324 151.354-51.883 152.527-44.1431 152.527-36.104 152.527-31.3667 151.905-26.8088 150.661-22.4304 149.416-18.052 147.682-13.9487 145.457-10.1206 143.232-6.29248 140.54-2.81128 137.382 0.322998 134.224 3.45727 130.742 6.14892 126.938 8.39795 123.134 10.647 119.031 12.3816 114.628 13.6018 110.226 14.822 105.656 15.4321 100.919 15.4321ZM100.919-74.7202C97.7129-72.5669 94.8298-70.0786 92.2698-67.2554 89.7097-64.4321 87.5444-61.3457 85.7739-57.9961 84.0034-54.6465 82.6396-51.1294 81.6826-47.4448 80.7256-43.7603 80.2471-39.98 80.2471-36.104 80.2471-33.2808 80.7974-30.625 81.8979-28.1367 82.9985-25.6484 84.4939-23.4712 86.384-21.605 88.2742-19.7388 90.4634-18.2554 92.9517-17.1548 95.4399-16.0542 98.0957-15.5039 100.919-15.5039 103.742-15.5039 106.41-16.0422 108.922-17.1189 111.434-18.1956 113.624-19.667 115.49-21.5332 117.356-23.3994 118.827-25.5886 119.904-28.1008 120.981-30.613 121.519-33.2808 121.519-36.104 121.519-39.98 121.052-43.7722 120.119-47.4807 119.186-51.1892 117.846-54.7063 116.1-58.032 114.353-61.3577 112.2-64.4321 109.64-67.2554 107.08-70.0786 104.173-72.5669 100.919-74.7202Z" transform="translate(1496.48 573)"/><path d="M100.919 5.16797C95.2246 5.16797 89.8772 4.07935 84.8767 1.9021 79.8762-0.275146 75.5098-3.22998 71.7773-6.9624 68.0449-10.6948 65.0901-15.0613 62.9128-20.0618 60.7356-25.0623 59.647-30.4097 59.647-36.104 59.647-41.5591 60.3049-46.9185 61.6208-52.1821 62.9368-57.4458 64.8389-62.4582 67.3271-67.2195 69.8154-71.9807 72.854-76.395 76.4429-80.4624 80.0317-84.5298 84.0752-88.1186 88.5732-91.229 84.0752-92.3296 79.6011-92.8799 75.1509-92.8799 69.0737-92.8799 63.3076-91.7314 57.8525-89.4346 52.3975-87.1377 47.4927-83.8838 43.1382-79.6728 42.1811-78.7637 41.2959-77.8186 40.4824-76.8376 39.6689-75.8567 38.7837-74.9355 37.8267-74.0742 37.2046-73.5 36.6064-73.0574 36.0322-72.7463 35.458-72.4353 34.7402-72.2798 33.8789-72.2798 32.4434-72.2798 31.2231-72.7822 30.2183-73.7871 29.2134-74.792 28.7109-76.0122 28.7109-77.4477 28.7109-78.2612 28.9861-79.1465 29.5364-80.1035 30.0867-81.0605 30.7566-81.9817 31.5461-82.8669 32.3357-83.7522 33.1611-84.5896 34.0225-85.3791 34.8838-86.1687 35.6016-86.8267 36.1758-87.353 41.7744-92.4253 47.7678-96.3372 54.156-99.0886 60.5442-101.84 67.5425-103.216 75.1509-103.216 79.6011-103.216 83.9795-102.773 88.2861-101.888 92.5928-101.003 96.8037-99.7226 100.919-98.0478 105.034-99.7226 109.245-101.003 113.552-101.888 117.858-102.773 122.237-103.216 126.687-103.216 134.248-103.216 141.258-101.84 147.718-99.0886 154.178-96.3372 160.159-92.4253 165.662-87.353L166.093-86.9224C166.715-86.3481 167.433-85.6782 168.246-84.9126 169.06-84.147 169.825-83.3335 170.543-82.4722 171.261-81.6108 171.871-80.7375 172.373-79.8523 172.876-78.967 173.127-78.1655 173.127-77.4477 173.127-76.0122 172.624-74.792 171.62-73.7871 170.615-72.7822 169.395-72.2798 167.959-72.2798 167.098-72.2798 166.38-72.4353 165.806-72.7463 165.231-73.0574 164.633-73.5 164.011-74.0742 163.054-74.9355 162.169-75.8567 161.355-76.8376 160.542-77.8186 159.657-78.7637 158.7-79.6728 154.345-83.8838 149.44-87.1377 143.985-89.4346 138.53-91.7314 132.764-92.8799 126.687-92.8799 122.237-92.8799 117.763-92.3296 113.265-91.229 117.763-88.1186 121.806-84.5178 125.395-80.4265 128.984-76.3352 132.022-71.9209 134.511-67.1836 136.999-62.4463 138.901-57.4458 140.217-52.1821 141.533-46.9185 142.191-41.5591 142.191-36.104 142.191-30.4097 141.102-25.0623 138.925-20.0618 136.748-15.0613 133.793-10.6948 130.061-6.9624 126.328-3.22998 121.95-0.275146 116.925 1.9021 111.901 4.07935 106.565 5.16797 100.919 5.16797ZM100.919-86.6352C96.1816-84.1948 91.9109-81.1921 88.1067-77.6272 84.3025-74.0622 81.0486-70.0906 78.345-65.7122 75.6413-61.3337 73.5718-56.6323 72.1362-51.6079 70.7007-46.5835 69.9829-41.4155 69.9829-36.104 69.9829-31.8452 70.7964-27.8376 72.4233-24.0813 74.0503-20.3249 76.2634-17.0471 79.0627-14.2478 81.8621-11.4485 85.1399-9.23535 88.8962-7.6084 92.6526-5.98144 96.6601-5.16797 100.919-5.16797 105.178-5.16797 109.185-5.98144 112.942-7.6084 116.698-9.23535 119.976-11.4485 122.775-14.2478 125.574-17.0471 127.788-20.3249 129.415-24.0813 131.041-27.8376 131.855-31.8452 131.855-36.104 131.855-41.4155 131.137-46.5835 129.702-51.6079 128.266-56.6323 126.197-61.3337 123.493-65.7122 120.789-70.0906 117.535-74.0622 113.731-77.6272 109.927-81.1921 105.656-84.1948 100.919-86.6352Z" fill="#00BCF2" transform="translate(1496.48 573)"/><text fontFamily="Mangal Pro,Mangal Pro_MSFontService,sans-serif" fontWeight="400" fontSize="147" transform="matrix(1 0 0 1 1698.14 573)">ReFinance</text></g></svg>
